<svg width="176" height="40" fill="none" xmlns="http://www.w3.org/2000/svg">
  <path
    d="M.562 20.127h7.263c4.436 0 6.924 1.942 6.924 5.207 0 2.393-1.329 3.856-3.562 4.363 2.573.338 4.267 1.801 4.267 4.532 0 3.463-2.6 5.602-7.291 5.602H.562V20.127Zm4.239 8.134h2.967c1.78 0 2.77-.928 2.77-2.448s-.99-2.448-2.77-2.448H4.801v4.898-.002Zm0 8.304h3.222c2.035 0 3.137-.928 3.137-2.533 0-1.604-1.16-2.562-3.137-2.562H4.8v5.095ZM19.355 39.83V20.126h7.685c4.211 0 7.094 2.562 7.094 6.558 0 2.505-1.329 4.56-3.532 5.545l3.984 7.6h-4.719l-3.362-6.615h-2.91v6.614h-4.24Zm4.238-10.133h2.91c2.006 0 3.307-1.182 3.307-3.012 0-1.831-1.299-3.04-3.306-3.04h-2.91v6.052ZM37.468 39.83l6.444-19.703h5.2l6.444 19.702h-4.493l-1.329-4.306H43.15l-1.329 4.306h-4.353Zm6.612-7.713h4.69l-2.372-7.627-2.318 7.627ZM58.663 39.83V20.126h3.76l7.6 12.187V20.127h3.984v19.702H70.25l-7.603-12.215V39.83h-3.984.002ZM78.248 39.83V20.126h6.726c5.737 0 9.297 3.856 9.297 9.823 0 5.968-3.59 9.88-9.297 9.88h-6.726Zm4.239-3.519h2.487c3.307 0 4.945-2.392 4.945-6.36 0-3.969-1.638-6.305-4.945-6.305h-2.487v12.665ZM97.633 32.23V20.127h4.239v12.187c0 2.73 1.186 4.053 3.419 4.053s3.447-1.294 3.447-4.053V20.127h4.239V32.23c0 5.037-2.685 7.768-7.686 7.768-5.001 0-7.658-2.73-7.658-7.768ZM116.793 39.83V20.126h3.759l7.601 12.187V20.127h3.984v19.702h-3.759l-7.603-12.215V39.83h-3.984.002ZM135.726 29.978c0-6.249 3.192-10.02 8.704-10.02 4.266 0 7.348 2.73 7.885 7.177h-4.126c-.395-2.42-1.724-3.66-3.844-3.66-2.855 0-4.351 2.309-4.351 6.503s1.526 6.502 4.691 6.502c2.345 0 3.843-1.52 3.843-3.883v-.478h-3.843v-3.236h7.715V39.83h-3.052l-.367-2.28C147.964 39.13 146.323 40 143.95 40c-5.002 0-8.223-3.968-8.223-10.02l-.001-.002ZM176 10.203c0 5.636-4.587 10.204-10.244 10.204a10.25 10.25 0 0 1-9.167-5.642l2.48-2.556a.39.39 0 0 0 .033-.035l.037-.038a2.324 2.324 0 0 1 1.709-.708c.66.005 1.248.263 1.764.777l3.609 3.595 1.9-1.893-3.169-3.156h.011l-.575-.574.001.013-.328-.327c-.891-.887-1.915-1.35-3.069-1.387-1.154-.037-2.183.392-3.084 1.292-.23.229-.718.784-.718.784l-1.507 1.525a10.238 10.238 0 0 1-.172-1.874C155.511 4.568 160.098 0 165.756 0c3.985 0 7.44 2.267 9.133 5.578h-6.093c-1.261 0-2.312.394-3.156 1.179h.002a3.83 3.83 0 0 0-1.059 1.668l2.335 2.325h.014l-.002-.045-.002-.045c0-.68.236-1.252.706-1.714.471-.462 1.071-.69 1.8-.69h6.379c.123.63.187 1.281.187 1.947Z"
    fill="#FF3800" />
</svg>
